<?xml version="1.0" encoding="UTF-8"?>
<svg id="uuid-50304aa0-f850-4309-b705-26ce8957cec2" data-name="MAR_K_H2O" xmlns="http://www.w3.org/2000/svg" viewBox="0 0 1953.61 1217.37">
  <defs>
    <style>
      .uuid-6b3871a9-3b65-4844-99c1-59ad138db6fd {
        fill: none;
        stroke: #000;
        stroke-miterlimit: 10;
        stroke-width: 6px;
      }
    </style>
  </defs>
  <g>
    <path d="M303.5,314.56h-173l-30.32,69.54c-7.47,17.12-11.2,29.9-11.2,38.34,0,6.72,3.24,12.62,9.72,17.71,6.48,5.09,20.48,8.4,42.02,9.91v12.02H0v-12.02c18.67-3.25,30.75-7.47,36.25-12.67,11.2-10.4,23.61-31.52,37.24-63.37L230.67,11.37h11.53l155.54,366.55c12.52,29.46,23.89,48.58,34.11,57.35,10.22,8.77,24.44,13.7,42.67,14.79v12.02h-176.3v-12.02c17.79-.86,29.82-3.79,36.08-8.77,6.26-4.98,9.39-11.05,9.39-18.2,0-9.53-4.4-24.58-13.18-45.17l-27.02-63.37ZM294.27,290.51l-75.79-178.08-77.77,178.08h153.56Z"/>
    <path d="M716.4,428.62c-14.72,15.17-29.11,26.05-43.17,32.66-14.06,6.61-29.22,9.91-45.48,9.91-32.95,0-61.74-13.59-86.34-40.78-24.61-27.18-36.91-62.12-36.91-104.8s13.62-81.73,40.86-117.15c27.24-35.42,62.28-53.13,105.12-53.13,26.58,0,48.55,8.34,65.91,25.02v-54.92c0-34.01-.82-54.92-2.47-62.72s-4.23-13.1-7.74-15.92c-3.52-2.81-7.91-4.22-13.18-4.22-5.72,0-13.29,1.74-22.74,5.2l-4.28-11.37L755.95,0h14.83v344.13c0,34.88.82,56.17,2.47,63.85,1.65,7.69,4.28,13.05,7.91,16.09,3.62,3.04,7.85,4.55,12.69,4.55,5.93,0,13.84-1.84,23.73-5.52l3.62,11.37-89.63,36.72h-15.16v-42.57ZM716.4,405.87v-153.38c-1.32-14.73-5.27-28.16-11.86-40.29-6.59-12.13-15.32-21.28-26.2-27.46-10.87-6.17-21.48-9.26-31.8-9.26-19.33,0-36.58,8.56-51.74,25.67-19.99,22.53-29.99,55.46-29.99,98.79s9.66,77.29,29,100.57c19.33,23.29,40.86,34.93,64.59,34.93,19.99,0,39.32-9.86,58-29.57Z"/>
    <path d="M928.95,155.65v66.94c25.26-44.63,51.19-66.94,77.77-66.94,12.08,0,22.08,3.63,29.99,10.89,7.91,7.26,11.86,15.65,11.86,25.18,0,8.45-2.86,15.6-8.57,21.45-5.72,5.85-12.52,8.77-20.43,8.77s-16.31-3.74-25.87-11.21c-9.56-7.47-16.64-11.21-21.25-11.21-3.95,0-8.24,2.17-12.85,6.5-9.89,8.89-20.1,23.51-30.65,43.87v142.66c0,16.47,2.09,28.92,6.26,37.37,2.85,5.85,7.91,10.72,15.16,14.62,7.25,3.9,17.68,5.85,31.31,5.85v11.7h-154.55v-11.7c15.37,0,26.8-2.38,34.27-7.15,5.49-3.46,9.34-8.99,11.53-16.57,1.1-3.68,1.65-14.19,1.65-31.52v-115.36c0-34.66-.72-55.29-2.14-61.9-1.43-6.61-4.07-11.42-7.91-14.46-3.85-3.03-8.62-4.55-14.33-4.55-6.81,0-14.5,1.62-23.07,4.87l-3.3-11.7,91.28-36.4h13.84Z"/>
    <path d="M1169.51,155.65v239.17c0,18.63,1.37,31.03,4.12,37.21,2.74,6.17,6.81,10.78,12.19,13.81,5.38,3.04,15.21,4.55,29.49,4.55v11.7h-146.64v-11.7c14.72,0,24.6-1.41,29.66-4.22,5.05-2.81,9.06-7.47,12.03-13.97s4.45-18.95,4.45-37.37v-114.71c0-32.28-.99-53.18-2.97-62.72-1.54-6.93-3.95-11.75-7.25-14.46-3.3-2.71-7.8-4.06-13.51-4.06-6.15,0-13.62,1.62-22.41,4.87l-4.61-11.7,90.95-36.4h14.5ZM1142.16,0c9.23,0,17.08,3.2,23.56,9.59,6.48,6.39,9.72,14.14,9.72,23.23s-3.25,16.9-9.72,23.4c-6.48,6.5-14.33,9.75-23.56,9.75s-17.14-3.25-23.73-9.75c-6.59-6.5-9.89-14.3-9.89-23.4s3.24-16.84,9.72-23.23c6.48-6.39,14.44-9.59,23.89-9.59Z"/>
    <path d="M1423.91,419.19c-30.98,23.62-50.42,37.26-58.33,40.94-11.86,5.41-24.5,8.12-37.9,8.12-20.87,0-38.06-7.04-51.57-21.12-13.51-14.08-20.26-32.6-20.26-55.57,0-14.51,3.3-27.08,9.89-37.69,9.01-14.73,24.66-28.6,46.96-41.59,22.29-13,59.37-28.81,111.22-47.44v-11.7c0-29.68-4.78-50.04-14.34-61.09-9.56-11.05-23.45-16.57-41.68-16.57-13.84,0-24.83,3.69-32.95,11.05-8.35,7.37-12.52,15.82-12.52,25.35l.66,18.85c0,9.97-2.59,17.66-7.75,23.07-5.16,5.42-11.92,8.12-20.26,8.12s-14.78-2.81-19.94-8.45c-5.16-5.63-7.74-13.32-7.74-23.07,0-18.63,9.66-35.75,29-51.34,19.33-15.6,46.46-23.4,81.39-23.4,26.8,0,48.77,4.44,65.91,13.32,12.96,6.72,22.52,17.22,28.67,31.52,3.95,9.32,5.93,28.38,5.93,57.19v101.06c0,28.38.55,45.77,1.65,52.16,1.1,6.39,2.91,10.67,5.44,12.84,2.52,2.17,5.44,3.25,8.73,3.25,3.51,0,6.59-.76,9.23-2.27,4.61-2.81,13.51-10.72,26.69-23.72v18.2c-24.61,32.5-48.11,48.74-70.52,48.74-10.77,0-19.33-3.69-25.7-11.05-6.37-7.36-9.67-19.93-9.89-37.69ZM1423.91,398.07v-113.41c-33.17,13-54.59,22.21-64.26,27.62-17.36,9.54-29.77,19.5-37.24,29.9-7.47,10.4-11.2,21.77-11.2,34.12,0,15.6,4.72,28.55,14.17,38.83,9.44,10.29,20.32,15.44,32.62,15.44,16.69,0,38.66-10.83,65.91-32.5Z"/>
    <path d="M1640.41,218.7c35.37-42.03,69.09-63.04,101.17-63.04,16.48,0,30.65,4.06,42.51,12.19,11.86,8.12,21.31,21.5,28.34,40.13,4.83,13,7.25,32.93,7.25,59.79v127.06c0,18.85,1.53,31.63,4.61,38.34,2.41,5.42,6.31,9.64,11.7,12.67,5.38,3.04,15.32,4.55,29.82,4.55v11.7h-149.28v-11.7h6.26c14.06,0,23.89-2.11,29.49-6.34,5.6-4.22,9.5-10.45,11.7-18.68.88-3.25,1.32-13.43,1.32-30.55v-121.86c0-27.08-3.57-46.74-10.71-58.98-7.14-12.24-19.17-18.36-36.09-18.36-26.15,0-52.18,14.08-78.1,42.24v156.95c0,20.15,1.2,32.61,3.62,37.37,3.07,6.29,7.3,10.89,12.69,13.81,5.38,2.92,16.31,4.39,32.79,4.39v11.7h-149.28v-11.7h6.59c15.37,0,25.75-3.84,31.14-11.54,5.38-7.69,8.07-22.37,8.07-44.03v-110.49c0-35.75-.83-57.52-2.47-65.32s-4.18-13.1-7.58-15.92c-3.41-2.81-7.96-4.22-13.67-4.22-6.15,0-13.51,1.62-22.08,4.87l-4.94-11.7,90.95-36.4h14.17v63.04Z"/>
  </g>
  <g>
    <path d="M158.72,502.9v81.83h-6.65c-2.16-15.7-6.02-28.21-11.59-37.51-5.57-9.31-13.51-16.69-23.82-22.16-10.31-5.47-20.97-8.2-31.99-8.2-12.46,0-22.77,3.69-30.92,11.08-8.15,7.39-12.22,15.79-12.22,25.21,0,7.21,2.58,13.78,7.73,19.72,7.43,8.72,25.1,20.36,53.02,34.9,22.76,11.86,38.31,20.97,46.64,27.31,8.33,6.34,14.74,13.81,19.23,22.42,4.49,8.61,6.74,17.62,6.74,27.05,0,17.91-7.16,33.36-21.48,46.33-14.32,12.97-32.74,19.46-55.27,19.46-7.07,0-13.72-.52-19.95-1.57-3.72-.58-11.41-2.7-23.1-6.37-11.68-3.66-19.08-5.5-22.2-5.5s-5.36.87-7.1,2.62c-1.74,1.74-3.03,5.35-3.86,10.82h-6.65v-81.14h6.65c3.11,16.99,7.31,29.69,12.58,38.12,5.27,8.44,13.33,15.44,24.17,21.03,10.84,5.58,22.74,8.38,35.68,8.38,14.98,0,26.81-3.84,35.5-11.52,8.69-7.68,13.03-16.75,13.03-27.22,0-5.82-1.65-11.69-4.94-17.62-3.3-5.93-8.42-11.46-15.37-16.58-4.67-3.49-17.43-10.91-38.28-22.25-20.85-11.34-35.68-20.39-44.48-27.13-8.81-6.74-15.49-14.19-20.04-22.33-4.56-8.14-6.83-17.1-6.83-26.87,0-16.98,6.71-31.61,20.13-43.88,13.42-12.27,30.49-18.41,51.23-18.41,12.94,0,26.66,3.08,41.16,9.25,6.71,2.91,11.44,4.36,14.2,4.36,3.11,0,5.66-.9,7.64-2.7,1.98-1.8,3.56-5.44,4.76-10.91h6.65Z"/>
    <path d="M299.46,721.88c-16.9,12.68-27.5,20.01-31.81,21.99-6.47,2.91-13.36,4.36-20.67,4.36-11.39,0-20.76-3.78-28.13-11.34-7.37-7.56-11.05-17.51-11.05-29.84,0-7.79,1.8-14.54,5.39-20.24,4.91-7.91,13.45-15.35,25.61-22.33,12.16-6.98,32.38-15.47,60.66-25.47v-6.28c0-15.94-2.61-26.87-7.82-32.8-5.21-5.93-12.79-8.9-22.74-8.9-7.55,0-13.54,1.98-17.97,5.93-4.56,3.96-6.83,8.49-6.83,13.61l.36,10.12c0,5.35-1.41,9.48-4.22,12.39-2.82,2.91-6.5,4.36-11.05,4.36s-8.06-1.51-10.87-4.54c-2.82-3.02-4.22-7.15-4.22-12.39,0-10,5.27-19.19,15.82-27.57,10.54-8.38,25.34-12.56,44.4-12.56,14.62,0,26.6,2.39,35.95,7.15,7.07,3.61,12.28,9.25,15.64,16.92,2.16,5,3.24,15.24,3.24,30.71v54.26c0,15.24.3,24.58.9,28,.6,3.43,1.59,5.73,2.97,6.89,1.38,1.16,2.97,1.74,4.76,1.74,1.91,0,3.59-.41,5.03-1.22,2.52-1.51,7.37-5.76,14.56-12.74v9.77c-13.42,17.45-26.24,26.17-38.46,26.17-5.87,0-10.55-1.98-14.02-5.93-3.48-3.95-5.27-10.7-5.39-20.24ZM299.46,710.54v-60.9c-18.09,6.98-29.78,11.93-35.05,14.83-9.47,5.12-16.24,10.47-20.31,16.05-4.07,5.58-6.11,11.69-6.11,18.32,0,8.38,2.58,15.33,7.73,20.85,5.15,5.53,11.08,8.29,17.79,8.29,9.1,0,21.09-5.82,35.95-17.45Z"/>
    <path d="M462.84,721.88c-16.9,12.68-27.5,20.01-31.81,21.99-6.47,2.91-13.36,4.36-20.67,4.36-11.39,0-20.76-3.78-28.13-11.34-7.37-7.56-11.05-17.51-11.05-29.84,0-7.79,1.8-14.54,5.39-20.24,4.91-7.91,13.45-15.35,25.61-22.33,12.16-6.98,32.38-15.47,60.66-25.47v-6.28c0-15.94-2.61-26.87-7.82-32.8-5.21-5.93-12.79-8.9-22.74-8.9-7.55,0-13.54,1.98-17.97,5.93-4.56,3.96-6.83,8.49-6.83,13.61l.36,10.12c0,5.35-1.41,9.48-4.22,12.39-2.82,2.91-6.5,4.36-11.05,4.36s-8.06-1.51-10.87-4.54c-2.82-3.02-4.22-7.15-4.22-12.39,0-10,5.27-19.19,15.82-27.57,10.54-8.38,25.34-12.56,44.4-12.56,14.62,0,26.6,2.39,35.95,7.15,7.07,3.61,12.28,9.25,15.64,16.92,2.16,5,3.24,15.24,3.24,30.71v54.26c0,15.24.3,24.58.9,28,.6,3.43,1.59,5.73,2.97,6.89,1.38,1.16,2.97,1.74,4.76,1.74,1.91,0,3.59-.41,5.03-1.22,2.52-1.51,7.37-5.76,14.56-12.74v9.77c-13.42,17.45-26.24,26.17-38.46,26.17-5.87,0-10.55-1.98-14.02-5.93-3.48-3.95-5.27-10.7-5.39-20.24ZM462.84,710.54v-60.9c-18.09,6.98-29.78,11.93-35.05,14.83-9.47,5.12-16.24,10.47-20.31,16.05-4.07,5.58-6.11,11.69-6.11,18.32,0,8.38,2.58,15.33,7.73,20.85,5.15,5.53,11.08,8.29,17.79,8.29,9.1,0,21.09-5.82,35.95-17.45Z"/>
    <path d="M524.49,585.08h77.47v6.46h-5.03c-4.67,0-8.24,1.11-10.69,3.32-2.46,2.21-3.68,5.18-3.68,8.9,0,4.07,1.26,8.9,3.77,14.48l38.28,88.29,38.46-91.6c2.76-6.51,4.13-11.46,4.13-14.83,0-1.63-.48-2.97-1.44-4.01-1.32-1.74-3-2.94-5.03-3.58-2.04-.64-6.17-.96-12.4-.96v-6.46h53.74v6.46c-6.23.47-10.55,1.69-12.94,3.66-4.2,3.49-7.97,9.31-11.32,17.45l-58.42,137.14h-7.37l-58.77-134.88c-2.64-6.28-5.15-10.79-7.55-13.52-2.4-2.73-5.45-5.03-9.17-6.89-2.04-1.05-6.05-2.03-12.04-2.97v-6.46Z"/>
    <path d="M744.67,645.28c-.12,23.73,5.81,42.34,17.8,55.83,11.98,13.5,26.06,20.24,42.24,20.24,10.78,0,20.16-2.88,28.13-8.64,7.97-5.76,14.65-15.62,20.04-29.58l5.57,3.49c-2.52,15.94-9.83,30.45-21.93,43.53-12.11,13.09-27.26,19.63-45.47,19.63-19.77,0-36.7-7.47-50.78-22.42-14.08-14.95-21.12-35.04-21.12-60.28,0-27.33,7.22-48.65,21.66-63.95,14.44-15.29,32.56-22.94,54.37-22.94,18.45,0,33.61,5.91,45.47,17.71,11.86,11.81,17.8,27.6,17.8,47.37h-113.78ZM744.67,635.16h76.21c-.6-10.23-1.86-17.45-3.77-21.64-3-6.51-7.46-11.63-13.39-15.35-5.93-3.72-12.13-5.58-18.6-5.58-9.95,0-18.84,3.75-26.69,11.25-7.85,7.5-12.43,17.94-13.75,31.32Z"/>
    <path d="M996.67,726.94c-8.03,8.14-15.88,13.99-23.54,17.54-7.67,3.55-15.94,5.32-24.8,5.32-17.97,0-33.67-7.3-47.09-21.9-13.42-14.6-20.13-33.35-20.13-56.27s7.43-43.88,22.29-62.9c14.86-19.02,33.97-28.53,57.34-28.53,14.5,0,26.48,4.48,35.95,13.44v-29.49c0-18.26-.45-29.49-1.35-33.68-.9-4.19-2.31-7.04-4.22-8.55-1.92-1.51-4.31-2.27-7.19-2.27-3.12,0-7.25.93-12.4,2.79l-2.34-6.11,49.07-19.54h8.09v184.78c0,18.73.45,30.16,1.35,34.29.9,4.13,2.34,7.01,4.31,8.64,1.98,1.63,4.28,2.44,6.92,2.44,3.24,0,7.55-.99,12.94-2.97l1.98,6.11-48.89,19.72h-8.27v-22.86ZM996.67,714.73v-82.36c-.72-7.91-2.88-15.12-6.47-21.64-3.59-6.51-8.36-11.43-14.29-14.74-5.93-3.32-11.72-4.97-17.35-4.97-10.55,0-19.95,4.6-28.22,13.78-10.9,12.1-16.36,29.78-16.36,53.04s5.27,41.5,15.82,54c10.54,12.51,22.29,18.76,35.23,18.76,10.9,0,21.45-5.29,31.63-15.88Z"/>
    <path d="M1112.6,580.37v35.94c13.78-23.96,27.92-35.94,42.42-35.94,6.59,0,12.04,1.95,16.36,5.85,4.31,3.9,6.47,8.4,6.47,13.52,0,4.54-1.56,8.38-4.67,11.52-3.12,3.14-6.83,4.71-11.14,4.71s-8.9-2.01-14.11-6.02c-5.21-4.01-9.08-6.02-11.59-6.02-2.16,0-4.49,1.16-7.01,3.49-5.39,4.77-10.96,12.62-16.71,23.56v76.6c0,8.84,1.14,15.53,3.41,20.07,1.56,3.14,4.31,5.76,8.27,7.85s9.64,3.14,17.08,3.14v6.28h-84.3v-6.28c8.39,0,14.62-1.28,18.69-3.84,2.99-1.86,5.09-4.83,6.29-8.9.6-1.98.9-7.62.9-16.92v-61.94c0-18.61-.39-29.69-1.17-33.24-.78-3.55-2.22-6.13-4.31-7.76-2.1-1.63-4.7-2.44-7.82-2.44-3.72,0-7.91.87-12.58,2.62l-1.8-6.28,49.79-19.54h7.55Z"/>
    <path d="M1280.3,721.88c-16.9,12.68-27.5,20.01-31.81,21.99-6.47,2.91-13.36,4.36-20.67,4.36-11.39,0-20.76-3.78-28.13-11.34-7.37-7.56-11.05-17.51-11.05-29.84,0-7.79,1.8-14.54,5.39-20.24,4.91-7.91,13.45-15.35,25.61-22.33,12.16-6.98,32.38-15.47,60.66-25.47v-6.28c0-15.94-2.61-26.87-7.82-32.8-5.21-5.93-12.79-8.9-22.74-8.9-7.55,0-13.54,1.98-17.97,5.93-4.55,3.96-6.83,8.49-6.83,13.61l.36,10.12c0,5.35-1.41,9.48-4.22,12.39-2.82,2.91-6.5,4.36-11.05,4.36s-8.06-1.51-10.87-4.54c-2.82-3.02-4.22-7.15-4.22-12.39,0-10,5.27-19.19,15.82-27.57,10.54-8.38,25.34-12.56,44.4-12.56,14.62,0,26.6,2.39,35.95,7.15,7.07,3.61,12.28,9.25,15.64,16.92,2.16,5,3.24,15.24,3.24,30.71v54.26c0,15.24.3,24.58.9,28,.6,3.43,1.59,5.73,2.97,6.89,1.38,1.16,2.97,1.74,4.76,1.74,1.92,0,3.59-.41,5.03-1.22,2.52-1.51,7.37-5.76,14.56-12.74v9.77c-13.42,17.45-26.24,26.17-38.46,26.17-5.87,0-10.55-1.98-14.02-5.93-3.48-3.95-5.27-10.7-5.39-20.24ZM1280.3,710.54v-60.9c-18.1,6.98-29.78,11.93-35.05,14.83-9.47,5.12-16.24,10.47-20.31,16.05-4.08,5.58-6.11,11.69-6.11,18.32,0,8.38,2.58,15.33,7.73,20.85,5.15,5.53,11.08,8.29,17.8,8.29,9.1,0,21.09-5.82,35.95-17.45Z"/>
  </g>
  <g>
    <path d="M17.7,925.07h-8.09v-104.77h74.2v6.89H17.7v97.89ZM16.75,871.94h60.09v6.88H16.75v-6.88Z"/>
    <path d="M188.45,925.82c-8.24,0-15.88-1.32-22.91-3.97-7.03-2.64-13.16-6.39-18.39-11.23-5.23-4.84-9.28-10.48-12.13-16.91-2.85-6.44-4.28-13.45-4.28-21.03s1.43-14.59,4.28-21.03c2.85-6.44,6.9-12.07,12.13-16.91,5.23-4.84,11.36-8.58,18.39-11.23,7.03-2.64,14.67-3.97,22.91-3.97s15.88,1.32,22.91,3.97c7.03,2.65,13.13,6.36,18.31,11.15,5.18,4.79,9.22,10.4,12.13,16.84,2.91,6.44,4.36,13.5,4.36,21.18s-1.45,14.74-4.36,21.18c-2.91,6.44-6.95,12.05-12.13,16.84-5.18,4.79-11.28,8.51-18.31,11.15-7.03,2.64-14.67,3.97-22.91,3.97ZM188.45,918.79c7.08,0,13.64-1.15,19.66-3.44,6.02-2.29,11.26-5.54,15.7-9.73,4.44-4.19,7.9-9.08,10.38-14.67,2.48-5.59,3.73-11.67,3.73-18.26s-1.24-12.8-3.73-18.34c-2.48-5.54-5.95-10.4-10.38-14.59-4.44-4.19-9.67-7.43-15.7-9.73-6.02-2.29-12.58-3.44-19.66-3.44s-13.64,1.15-19.66,3.44c-6.02,2.3-11.28,5.54-15.77,9.73-4.49,4.19-7.98,9.06-10.46,14.59-2.48,5.54-3.73,11.65-3.73,18.34s1.24,12.67,3.73,18.26c2.48,5.59,5.97,10.48,10.46,14.67,4.49,4.19,9.75,7.44,15.77,9.73,6.02,2.3,12.58,3.44,19.66,3.44Z"/>
    <path d="M327.18,925.07v-97.89h-39.95v-6.89h87.99v6.89h-39.95v97.89h-8.09Z"/>
    <path d="M473.98,925.82c-8.24,0-15.88-1.32-22.91-3.97-7.03-2.64-13.16-6.39-18.39-11.23-5.23-4.84-9.28-10.48-12.13-16.91-2.85-6.44-4.28-13.45-4.28-21.03s1.43-14.59,4.28-21.03c2.85-6.44,6.9-12.07,12.13-16.91,5.23-4.84,11.36-8.58,18.39-11.23,7.03-2.64,14.67-3.97,22.91-3.97s15.88,1.32,22.91,3.97c7.03,2.65,13.13,6.36,18.31,11.15,5.18,4.79,9.22,10.4,12.13,16.84,2.91,6.44,4.36,13.5,4.36,21.18s-1.45,14.74-4.36,21.18c-2.91,6.44-6.95,12.05-12.13,16.84-5.18,4.79-11.28,8.51-18.31,11.15-7.03,2.64-14.67,3.97-22.91,3.97ZM473.98,918.79c7.08,0,13.64-1.15,19.66-3.44,6.02-2.29,11.26-5.54,15.7-9.73,4.44-4.19,7.9-9.08,10.38-14.67,2.48-5.59,3.73-11.67,3.73-18.26s-1.24-12.8-3.73-18.34c-2.48-5.54-5.95-10.4-10.38-14.59-4.44-4.19-9.67-7.43-15.7-9.73-6.02-2.29-12.58-3.44-19.66-3.44s-13.64,1.15-19.66,3.44c-6.02,2.3-11.28,5.54-15.77,9.73-4.49,4.19-7.98,9.06-10.46,14.59-2.48,5.54-3.73,11.65-3.73,18.34s1.24,12.67,3.73,18.26c2.48,5.59,5.97,10.48,10.46,14.67,4.49,4.19,9.75,7.44,15.77,9.73,6.02,2.3,12.58,3.44,19.66,3.44Z"/>
    <path d="M638.87,925.82c-8.35,0-16.07-1.32-23.15-3.97-7.08-2.64-13.24-6.36-18.47-11.15-5.23-4.79-9.28-10.4-12.13-16.84-2.85-6.44-4.28-13.5-4.28-21.18s1.43-14.74,4.28-21.18c2.85-6.44,6.92-12.05,12.21-16.84,5.28-4.79,11.44-8.51,18.47-11.15,7.03-2.64,14.77-3.97,23.23-3.97s15.48,1.2,22.35,3.59c6.87,2.39,12.74,5.99,17.6,10.78l-5.07,5.09c-4.86-4.49-10.17-7.68-15.93-9.58-5.76-1.89-12.02-2.84-18.79-2.84-7.19,0-13.85,1.15-19.98,3.44-6.13,2.3-11.47,5.54-16.01,9.73-4.55,4.19-8.06,9.08-10.54,14.67-2.48,5.59-3.73,11.68-3.73,18.26s1.24,12.67,3.73,18.26c2.48,5.59,6,10.48,10.54,14.67,4.54,4.19,9.88,7.44,16.01,9.73,6.13,2.3,12.79,3.44,19.98,3.44,6.55,0,12.76-.95,18.63-2.84,5.87-1.89,11.23-5.04,16.09-9.43l4.6,5.84c-4.97,4.49-10.91,7.86-17.84,10.1-6.92,2.24-14.19,3.37-21.8,3.37ZM670.73,911.6v-38.47h7.77v39.21l-7.77-.75Z"/>
    <path d="M745.72,925.07v-104.77h39.8c9.3,0,17.28,1.4,23.94,4.19,6.66,2.79,11.78,6.81,15.38,12.05,3.59,5.24,5.39,11.6,5.39,19.08s-1.8,13.55-5.39,18.78c-3.59,5.24-8.72,9.28-15.38,12.12-6.66,2.84-14.64,4.27-23.94,4.27h-35.36l3.65-3.59v37.87h-8.09ZM753.81,887.65l-3.65-3.59h35.36c11.94,0,21.01-2.49,27.19-7.48,6.18-4.99,9.28-11.97,9.28-20.95s-3.09-16.09-9.28-21.03c-6.18-4.94-15.25-7.41-27.19-7.41h-35.36l3.65-3.74v64.21ZM822.78,925.07l-28.85-38.02h9.2l28.85,38.02h-9.2Z"/>
    <path d="M873.03,925.07l51.05-104.77h8.09l51.05,104.77h-8.72l-48.2-99.98h3.49l-48.04,99.98h-8.72ZM891.74,895.59l2.7-6.44h66.43l2.7,6.44h-71.82Z"/>
    <path d="M1043.15,925.07h-8.09v-104.77h74.2v6.89h-66.11v97.89ZM1042.2,871.94h60.09v6.88h-60.09v-6.88Z"/>
    <path d="M1213.9,925.82c-8.24,0-15.88-1.32-22.91-3.97-7.03-2.64-13.16-6.39-18.39-11.23-5.23-4.84-9.28-10.48-12.13-16.91-2.85-6.44-4.28-13.45-4.28-21.03s1.43-14.59,4.28-21.03c2.85-6.44,6.9-12.07,12.13-16.91,5.23-4.84,11.36-8.58,18.39-11.23,7.03-2.64,14.66-3.97,22.91-3.97s15.88,1.32,22.91,3.97c7.03,2.65,13.13,6.36,18.31,11.15,5.18,4.79,9.22,10.4,12.13,16.84,2.91,6.44,4.36,13.5,4.36,21.18s-1.46,14.74-4.36,21.18c-2.91,6.44-6.95,12.05-12.13,16.84-5.18,4.79-11.28,8.51-18.31,11.15-7.03,2.64-14.66,3.97-22.91,3.97ZM1213.9,918.79c7.08,0,13.64-1.15,19.66-3.44,6.03-2.29,11.26-5.54,15.7-9.73,4.44-4.19,7.9-9.08,10.38-14.67,2.48-5.59,3.73-11.67,3.73-18.26s-1.24-12.8-3.73-18.34c-2.49-5.54-5.95-10.4-10.38-14.59-4.44-4.19-9.67-7.43-15.7-9.73-6.02-2.29-12.58-3.44-19.66-3.44s-13.63,1.15-19.66,3.44c-6.03,2.3-11.28,5.54-15.77,9.73-4.49,4.19-7.98,9.06-10.46,14.59-2.49,5.54-3.73,11.65-3.73,18.34s1.24,12.67,3.73,18.26c2.48,5.59,5.97,10.48,10.46,14.67,4.49,4.19,9.75,7.44,15.77,9.73,6.02,2.3,12.58,3.44,19.66,3.44Z"/>
  </g>
  <path class="uuid-6b3871a9-3b65-4844-99c1-59ad138db6fd" d="M1430.3,956.08c58.37-189.14,97.13-315.11,108.07-350.19,2.26-7.25,7.89-24.89,14.36-24.62,6.47.27,10.63,18.32,12.31,25.99,24.51,111.69,43.77,277.69,43.77,277.69,4.56,39.29,25.83,207.1,32.15,251.01,2.04,25.6.75,46.23-.91,60.64-1.3,11.34-2.41,15.17-5.47,16.87-11.35,6.32-39.11-22.39-57.91-43.32-47.4-52.75-72.83-91.56-102.14-132.23-38.86-53.93-84.76-111.44-103.05-176.92-3.22-11.53-7.88-31.54,2.28-42.41,9.42-10.07,27.33-7.75,52.89-2.74,26.42,5.18,62.93,13.62,106.7,27.81,28.43,7.54,56.87,15.08,85.3,22.62,4.06,1.08,21.91,6.67,46.02,14.77,25.9,8.71,45.64,16,56.54,20.06,45.87,17.09,110.41,42.22,182.39,56.54,13.71,2.73,32.66,6.05,41.95-4.1,8.46-9.24,4.79-25.12,0-44.69-13.77-56.27-25.9-84.63-30.09-95.3-16.72-42.54-17.48-49.11-39.67-98.49-14.13-31.46-39.06-77.21-88.91-168.71-3-5.5-9.64-17.4-17.33-16.87-1.66.11-9.1,1.21-16.41,23.71-15.15,46.6-12.8,116.44-9.58,170.99,3.49,59.11,5.81,79.42,15.05,132.69,3.16,18.22,6.56,33.27,9.12,43.77,1.67,2.76,5.33,8.02,9.58,7.75,5.1-.32,8.42-8.43,10.94-15.96,10.16-30.33,9.86-58.75,11.4-58.82,1.57-.08,3.35,29.56,15.05,63.84,6.85,20.07,11.63,25.61,16.41,25.99,6.07.48,11.97-7.77,20.52-19.61,4.58-6.33,7.85-11.99,10.02-16.07,1.46-2.1,9.22-12.93,15.51-11.29,2.37.62,4.88,3.09,9.12,20.97,2.63,11.09,4.13,20.51,5.02,27.36"/>
</svg>